<svg xmlns="http://www.w3.org/2000/svg" xmlns:xlink="http://www.w3.org/1999/xlink" width="500" zoomAndPan="magnify" viewBox="0 0 375 374.999991" height="500" preserveAspectRatio="xMidYMid meet" version="1.0"><defs><clipPath id="dc3a13894b"><path d="M 49 51 L 332 51 L 332 332.5 L 49 332.5 Z M 49 51 " clip-rule="nonzero"/></clipPath></defs><g clip-path="url(#dc3a13894b)"><path fill="#e33f3d" d="M 230.3125 191.820312 L 323.070312 99.105469 C 334.070312 88.121094 334.070312 70.296875 323.070312 59.300781 C 312.070312 48.316406 294.257812 48.316406 283.257812 59.300781 L 190.5 152.015625 L 97.746094 59.308594 C 86.753906 48.316406 68.921875 48.316406 57.921875 59.308594 C 46.933594 70.296875 46.933594 88.121094 57.921875 99.113281 L 150.679688 191.820312 L 57.699219 284.757812 C 46.707031 295.742188 46.707031 313.566406 57.699219 324.554688 C 63.1875 330.050781 70.40625 332.800781 77.605469 332.800781 C 84.800781 332.800781 92.019531 330.050781 97.519531 324.554688 L 190.492188 231.625 L 283.238281 324.328125 C 288.738281 329.824219 295.945312 332.574219 303.144531 332.574219 C 310.34375 332.574219 317.550781 329.824219 323.050781 324.328125 C 334.050781 313.34375 334.050781 295.519531 323.050781 284.535156 Z M 230.3125 191.820312 " fill-opacity="1" fill-rule="nonzero"/></g></svg>